<svg width="512" height="512" viewBox="0 0 160 160" xmlns="http://www.w3.org/2000/svg">
  <rect width="512" height="512" fill="#252526"/>
  <rect x="0" y="0" width="3" height="160" fill="#ffffff"/>
  <g transform="translate(32,32) scale(4)">
    <path fill="#cfcfcf" fill-rule="evenodd" clip-rule="evenodd" d="M11.4 2h1.2v3h-1.2z M6 5h12v16h2v1H4v-1h2z M7.6 8h1.8v1.8H7.6z M11.1 8h1.8v1.8h-1.8z M14.6 8h1.8v1.8h-1.8z M7.6 11.2h1.8v1.8H7.6z M11.1 11.2h1.8v1.8h-1.8z M14.6 11.2h1.8v1.8h-1.8z M7.6 14.4h1.8v1.8H7.6z M14.6 14.4h1.8v1.8h-1.8z M10.9 17.6h2.2V21h-2.2z"/>
  </g>
</svg>
