<svg width="256" height="256" viewBox="0 0 256 256" xmlns="http://www.w3.org/2000/svg" shape-rendering="crispEdges">
  <defs>
    <linearGradient id="sky" x1="0" y1="0" x2="0" y2="1">
      <stop offset="0" stop-color="#14202a"/>
      <stop offset="0.55" stop-color="#0c141a"/>
      <stop offset="1" stop-color="#070b0d"/>
    </linearGradient>
    <radialGradient id="glow" cx="0.5" cy="0.46" r="0.5">
      <stop offset="0" stop-color="#ffb13d" stop-opacity="0.20"/>
      <stop offset="1" stop-color="#ffb13d" stop-opacity="0"/>
    </radialGradient>
    <clipPath id="round"><rect width="256" height="256" rx="52"/></clipPath>
  </defs>
  <g clip-path="url(#round)" shape-rendering="auto">
    <rect width="256" height="256" fill="url(#sky)"/>
    <rect width="256" height="256" fill="url(#glow)"/>
    <ellipse cx="128" cy="232" rx="92" ry="14" fill="#000" opacity="0.35"/>
  </g>
  <g clip-path="url(#round)"><rect x="128" y="0" width="16" height="16" fill="#ffb13d"/><rect x="128" y="16" width="16" height="16" fill="#ffb13d"/><rect x="32" y="32" width="16" height="16" fill="#ffb13d"/><rect x="48" y="32" width="16" height="16" fill="#ffb13d"/><rect x="64" y="32" width="16" height="16" fill="#ffb13d"/><rect x="80" y="32" width="16" height="16" fill="#ffb13d"/><rect x="96" y="32" width="16" height="16" fill="#ffb13d"/><rect x="112" y="32" width="16" height="16" fill="#ffb13d"/><rect x="128" y="32" width="16" height="16" fill="#ffb13d"/><rect x="144" y="32" width="16" height="16" fill="#ffb13d"/><rect x="160" y="32" width="16" height="16" fill="#ffb13d"/><rect x="176" y="32" width="16" height="16" fill="#ffb13d"/><rect x="192" y="32" width="16" height="16" fill="#ffb13d"/><rect x="208" y="32" width="16" height="16" fill="#ffb13d"/><rect x="48" y="48" width="16" height="16" fill="#2b3e4a"/><rect x="64" y="48" width="16" height="16" fill="#2b3e4a"/><rect x="80" y="48" width="16" height="16" fill="#2b3e4a"/><rect x="96" y="48" width="16" height="16" fill="#2b3e4a"/><rect x="112" y="48" width="16" height="16" fill="#2b3e4a"/><rect x="128" y="48" width="16" height="16" fill="#2b3e4a"/><rect x="144" y="48" width="16" height="16" fill="#2b3e4a"/><rect x="160" y="48" width="16" height="16" fill="#2b3e4a"/><rect x="176" y="48" width="16" height="16" fill="#2b3e4a"/><rect x="192" y="48" width="16" height="16" fill="#2b3e4a"/><rect x="48" y="64" width="16" height="16" fill="#2b3e4a"/><rect x="64" y="64" width="16" height="16" fill="#63f2a6"/><rect x="80" y="64" width="16" height="16" fill="#63f2a6"/><rect x="96" y="64" width="16" height="16" fill="#2b3e4a"/><rect x="112" y="64" width="16" height="16" fill="#ffce7a"/><rect x="128" y="64" width="16" height="16" fill="#ffce7a"/><rect x="144" y="64" width="16" height="16" fill="#2b3e4a"/><rect x="160" y="64" width="16" height="16" fill="#ffce7a"/><rect x="176" y="64" width="16" height="16" fill="#ffce7a"/><rect x="192" y="64" width="16" height="16" fill="#2b3e4a"/><rect x="48" y="80" width="16" height="16" fill="#2b3e4a"/><rect x="64" y="80" width="16" height="16" fill="#2a9c5f"/><rect x="80" y="80" width="16" height="16" fill="#2a9c5f"/><rect x="96" y="80" width="16" height="16" fill="#2b3e4a"/><rect x="112" y="80" width="16" height="16" fill="#c9821f"/><rect x="128" y="80" width="16" height="16" fill="#c9821f"/><rect x="144" y="80" width="16" height="16" fill="#2b3e4a"/><rect x="160" y="80" width="16" height="16" fill="#c9821f"/><rect x="176" y="80" width="16" height="16" fill="#c9821f"/><rect x="192" y="80" width="16" height="16" fill="#2b3e4a"/><rect x="48" y="96" width="16" height="16" fill="#2b3e4a"/><rect x="64" y="96" width="16" height="16" fill="#2b3e4a"/><rect x="80" y="96" width="16" height="16" fill="#2b3e4a"/><rect x="96" y="96" width="16" height="16" fill="#2b3e4a"/><rect x="112" y="96" width="16" height="16" fill="#2b3e4a"/><rect x="128" y="96" width="16" height="16" fill="#2b3e4a"/><rect x="144" y="96" width="16" height="16" fill="#2b3e4a"/><rect x="160" y="96" width="16" height="16" fill="#2b3e4a"/><rect x="176" y="96" width="16" height="16" fill="#2b3e4a"/><rect x="192" y="96" width="16" height="16" fill="#2b3e4a"/><rect x="48" y="112" width="16" height="16" fill="#2b3e4a"/><rect x="64" y="112" width="16" height="16" fill="#ffce7a"/><rect x="80" y="112" width="16" height="16" fill="#ffce7a"/><rect x="96" y="112" width="16" height="16" fill="#2b3e4a"/><rect x="112" y="112" width="16" height="16" fill="#86d8ff"/><rect x="128" y="112" width="16" height="16" fill="#86d8ff"/><rect x="144" y="112" width="16" height="16" fill="#2b3e4a"/><rect x="160" y="112" width="16" height="16" fill="#63f2a6"/><rect x="176" y="112" width="16" height="16" fill="#63f2a6"/><rect x="192" y="112" width="16" height="16" fill="#2b3e4a"/><rect x="48" y="128" width="16" height="16" fill="#2b3e4a"/><rect x="64" y="128" width="16" height="16" fill="#c9821f"/><rect x="80" y="128" width="16" height="16" fill="#c9821f"/><rect x="96" y="128" width="16" height="16" fill="#2b3e4a"/><rect x="112" y="128" width="16" height="16" fill="#2f86c9"/><rect x="128" y="128" width="16" height="16" fill="#2f86c9"/><rect x="144" y="128" width="16" height="16" fill="#2b3e4a"/><rect x="160" y="128" width="16" height="16" fill="#2a9c5f"/><rect x="176" y="128" width="16" height="16" fill="#2a9c5f"/><rect x="192" y="128" width="16" height="16" fill="#2b3e4a"/><rect x="48" y="144" width="16" height="16" fill="#2b3e4a"/><rect x="64" y="144" width="16" height="16" fill="#2b3e4a"/><rect x="80" y="144" width="16" height="16" fill="#2b3e4a"/><rect x="96" y="144" width="16" height="16" fill="#2b3e4a"/><rect x="112" y="144" width="16" height="16" fill="#2b3e4a"/><rect x="128" y="144" width="16" height="16" fill="#2b3e4a"/><rect x="144" y="144" width="16" height="16" fill="#2b3e4a"/><rect x="160" y="144" width="16" height="16" fill="#2b3e4a"/><rect x="176" y="144" width="16" height="16" fill="#2b3e4a"/><rect x="192" y="144" width="16" height="16" fill="#2b3e4a"/><rect x="48" y="160" width="16" height="16" fill="#2b3e4a"/><rect x="64" y="160" width="16" height="16" fill="#ffce7a"/><rect x="80" y="160" width="16" height="16" fill="#ffce7a"/><rect x="96" y="160" width="16" height="16" fill="#2b3e4a"/><rect x="112" y="160" width="16" height="16" fill="#ffce7a"/><rect x="128" y="160" width="16" height="16" fill="#ffce7a"/><rect x="144" y="160" width="16" height="16" fill="#2b3e4a"/><rect x="160" y="160" width="16" height="16" fill="#0e171d"/><rect x="176" y="160" width="16" height="16" fill="#0e171d"/><rect x="192" y="160" width="16" height="16" fill="#2b3e4a"/><rect x="48" y="176" width="16" height="16" fill="#2b3e4a"/><rect x="64" y="176" width="16" height="16" fill="#c9821f"/><rect x="80" y="176" width="16" height="16" fill="#c9821f"/><rect x="96" y="176" width="16" height="16" fill="#2b3e4a"/><rect x="112" y="176" width="16" height="16" fill="#c9821f"/><rect x="128" y="176" width="16" height="16" fill="#c9821f"/><rect x="144" y="176" width="16" height="16" fill="#2b3e4a"/><rect x="160" y="176" width="16" height="16" fill="#0e171d"/><rect x="176" y="176" width="16" height="16" fill="#0e171d"/><rect x="192" y="176" width="16" height="16" fill="#2b3e4a"/><rect x="48" y="192" width="16" height="16" fill="#2b3e4a"/><rect x="64" y="192" width="16" height="16" fill="#2b3e4a"/><rect x="80" y="192" width="16" height="16" fill="#2b3e4a"/><rect x="96" y="192" width="16" height="16" fill="#2b3e4a"/><rect x="112" y="192" width="16" height="16" fill="#c9821f"/><rect x="128" y="192" width="16" height="16" fill="#c9821f"/><rect x="144" y="192" width="16" height="16" fill="#2b3e4a"/><rect x="160" y="192" width="16" height="16" fill="#2b3e4a"/><rect x="176" y="192" width="16" height="16" fill="#2b3e4a"/><rect x="192" y="192" width="16" height="16" fill="#2b3e4a"/><rect x="32" y="208" width="16" height="16" fill="#17262e"/><rect x="48" y="208" width="16" height="16" fill="#17262e"/><rect x="64" y="208" width="16" height="16" fill="#17262e"/><rect x="80" y="208" width="16" height="16" fill="#17262e"/><rect x="96" y="208" width="16" height="16" fill="#17262e"/><rect x="112" y="208" width="16" height="16" fill="#17262e"/><rect x="128" y="208" width="16" height="16" fill="#17262e"/><rect x="144" y="208" width="16" height="16" fill="#17262e"/><rect x="160" y="208" width="16" height="16" fill="#17262e"/><rect x="176" y="208" width="16" height="16" fill="#17262e"/><rect x="192" y="208" width="16" height="16" fill="#17262e"/><rect x="208" y="208" width="16" height="16" fill="#17262e"/></g>
</svg>